<svg width="80" height="80" viewBox="0 0 80 80" fill="none" xmlns="http://www.w3.org/2000/svg">
<path d="M6.66663 60H30V66.6667H6.66663V60ZM6.66663 36.6667H36.6666V43.3333H6.66663V36.6667ZM6.66663 13.3333H73.3333V20H6.66663V13.3333ZM68.9133 43.417L72.767 42.1133L76.1003 47.8867L73.0466 50.5703C73.2346 51.462 73.3333 52.386 73.3333 53.3333C73.3333 54.2807 73.2346 55.2047 73.0466 56.0963L76.1003 58.78L72.767 64.5533L68.9133 63.2497C67.545 64.4803 65.921 65.4317 64.1303 66.0147L63.3333 70H56.6666L55.8696 66.0147C54.079 65.4317 52.455 64.4803 51.0866 63.2497L47.233 64.5533L43.8996 58.78L46.9533 56.0963C46.7653 55.2047 46.6666 54.2807 46.6666 53.3333C46.6666 52.386 46.7653 51.462 46.9533 50.5703L43.8996 47.8867L47.233 42.1133L51.0866 43.417C52.455 42.1863 54.079 41.235 55.8696 40.652L56.6666 36.6667H63.3333L64.1303 40.652C65.921 41.235 67.545 42.1863 68.9133 43.417ZM60 56.6667C61.841 56.6667 63.3333 55.1743 63.3333 53.3333C63.3333 51.4923 61.841 50 60 50C58.159 50 56.6666 51.4923 56.6666 53.3333C56.6666 55.1743 58.159 56.6667 60 56.6667Z" fill="black"/>
</svg>
