<svg width="40" height="40" viewBox="0 0 40 40" fill="none" xmlns="http://www.w3.org/2000/svg">
<path d="M3.33337 30H15V33.3333H3.33337V30ZM3.33337 18.3333H18.3334V21.6667H3.33337V18.3333ZM3.33337 6.66666H36.6667V9.99999H3.33337V6.66666ZM34.4567 21.7085L36.3835 21.0567L38.0502 23.9433L36.5234 25.2852C36.6174 25.731 36.6667 26.193 36.6667 26.6667C36.6667 27.1403 36.6174 27.6023 36.5234 28.0482L38.0502 29.39L36.3835 32.2767L34.4567 31.6248C33.7725 32.2402 32.9605 32.7158 32.0652 33.0073L31.6667 35H28.3334L27.9349 33.0073C27.0395 32.7158 26.2275 32.2402 25.5434 31.6248L23.6165 32.2767L21.9499 29.39L23.4767 28.0482C23.3827 27.6023 23.3334 27.1403 23.3334 26.6667C23.3334 26.193 23.3827 25.731 23.4767 25.2852L21.9499 23.9433L23.6165 21.0567L25.5434 21.7085C26.2275 21.0932 27.0395 20.6175 27.9349 20.326L28.3334 18.3333H31.6667L32.0652 20.326C32.9605 20.6175 33.7725 21.0932 34.4567 21.7085ZM30 28.3333C30.9205 28.3333 31.6667 27.5872 31.6667 26.6667C31.6667 25.7462 30.9205 25 30 25C29.0795 25 28.3334 25.7462 28.3334 26.6667C28.3334 27.5872 29.0795 28.3333 30 28.3333Z" fill="black"/>
</svg>
